<?xml version="1.0" encoding="utf-8"?>
<!-- Generator: Adobe Illustrator 27.7.0, SVG Export Plug-In . SVG Version: 6.00 Build 0)  -->
<svg version="1.1" id="Layer_1" xmlns="http://www.w3.org/2000/svg" xmlns:xlink="http://www.w3.org/1999/xlink" x="0px" y="0px"
	 viewBox="0 0 512 512" style="enable-background:new 0 0 512 512;" xml:space="preserve">
<style type="text/css">
	.st0{display:none;}
	.st1{display:inline;}
	.st2{display:inline;fill:#FFFFFF;}
	.st3{fill:#FFFFFF;}
</style>
<g class="st0">
	<ellipse transform="matrix(0.7071 -0.7071 0.7071 0.7071 -106.0387 256)" class="st1" cx="256" cy="256" rx="282.56" ry="119.55"/>
	<circle class="st1" cx="256" cy="248.63" r="186.9"/>
	<circle class="st2" cx="256" cy="248.63" r="155.43"/>
	<path class="st2" d="M69.1,435.53c10.67-0.78,21.11-2.3,31.42-4.34c10.3-2.05,20.44-4.57,30.4-7.61
		c9.95-3.03,19.72-6.55,29.26-10.56c9.55-3.98,18.87-8.5,27.89-13.54c9.06-4.96,17.87-10.41,26.33-16.38
		c4.33-2.85,8.37-6.1,12.57-9.17c2.08-1.56,4.04-3.26,6.08-4.88c2.03-1.63,4.1-3.21,6.03-4.97c15.88-13.52,30.58-28.58,44.89-44.5
		c-9.78,19.05-22.73,36.54-37.8,52.09c-1.84,1.99-3.84,3.82-5.79,5.7c-1.99,1.84-3.93,3.75-5.98,5.53
		c-4.12,3.53-8.24,7.09-12.62,10.32c-4.27,3.38-8.82,6.36-13.31,9.45c-2.28,1.48-4.64,2.86-6.95,4.29c-2.3,1.45-4.68,2.78-7.08,4.09
		c-4.75,2.67-9.67,5.03-14.57,7.39l-7.5,3.24c-2.5,1.07-5.06,2-7.61,2.97c-10.21,3.76-20.69,6.8-31.32,8.97
		c-10.63,2.17-21.4,3.55-32.19,3.98C90.48,437.88,79.64,437.67,69.1,435.53z"/>
	<g class="st1">
		<g id="XMLID_00000075128247264950773140000003956731510430599049_">
			<g>
				<path d="M332.5,294.62v0.96c-13.53,0-24.5,10.97-24.5,24.5h-0.96c0-13.53-10.97-24.5-24.5-24.5v-0.96
					c13.53,0,24.5-10.96,24.5-24.49H308C308,283.66,318.97,294.62,332.5,294.62z"/>
			</g>
			<g>
			</g>
		</g>
	</g>
	<g class="st1">
		<path class="st3" d="M188.07,399.48c-9.02,5.04-18.34,9.56-27.89,13.54c-9.54,4.01-19.31,7.53-29.26,10.56
			c-9.95,3.04-20.1,5.56-30.4,7.61c-10.31,2.04-20.75,3.57-31.42,4.34c10.54,2.14,21.38,2.35,32.16,2.07
			c10.79-0.43,21.56-1.82,32.19-3.98c10.63-2.18,21.1-5.21,31.32-8.97c2.54-0.97,5.1-1.9,7.61-2.97l7.5-3.24
			c4.91-2.36,9.82-4.72,14.57-7.39c2.39-1.3,4.77-2.63,7.08-4.09c2.32-1.43,4.67-2.81,6.95-4.29c2.04-1.4,4.09-2.79,6.12-4.19
			c-5.36-1.48-10.61-3.23-15.73-5.25C195.31,395.38,191.72,397.48,188.07,399.48z"/>
		<path d="M234.4,382.9c2.05-1.78,3.99-3.68,5.98-5.53c1.96-1.88,3.95-3.71,5.79-5.7c15.08-15.55,28.02-33.04,37.8-52.09
			c-14.31,15.92-29.01,30.97-44.89,44.5c-1.92,1.76-4,3.34-6.03,4.97c-2.04,1.61-4,3.32-6.08,4.88c-4.2,3.06-8.24,6.31-12.57,9.17
			c-5.06,3.57-10.25,6.93-15.54,10.13c5.11,2.02,10.36,3.77,15.73,5.25c2.44-1.69,4.86-3.41,7.19-5.26
			C226.16,389.99,230.28,386.43,234.4,382.9z"/>
	</g>
</g>
<g>
	<path class="st3" d="M69.1,435.54c10.67-0.78,21.11-2.3,31.42-4.34c10.3-2.05,20.44-4.57,30.4-7.61
		c9.95-3.03,19.72-6.55,29.26-10.56c9.55-3.98,18.87-8.5,27.89-13.54c9.06-4.96,17.87-10.41,26.33-16.39
		c4.33-2.85,8.37-6.1,12.57-9.17c2.08-1.56,4.04-3.26,6.08-4.88c2.03-1.63,4.1-3.21,6.03-4.97c15.88-13.52,30.58-28.58,44.89-44.5
		c-9.78,19.05-22.73,36.54-37.8,52.09c-1.84,1.99-3.84,3.82-5.79,5.7c-1.99,1.84-3.93,3.75-5.98,5.53
		c-4.12,3.53-8.24,7.09-12.62,10.32c-4.27,3.38-8.83,6.36-13.31,9.45c-2.28,1.48-4.64,2.86-6.95,4.29c-2.3,1.45-4.68,2.78-7.08,4.09
		c-4.75,2.67-9.67,5.03-14.58,7.39l-7.5,3.24c-2.5,1.07-5.06,2-7.61,2.97c-10.21,3.76-20.69,6.8-31.32,8.97
		c-10.63,2.17-21.4,3.55-32.19,3.98C90.47,437.89,79.64,437.68,69.1,435.54z"/>
	<path class="st3" d="M455.8,56.2c-27.78-27.78-84.09-20.76-148.39,12.72c-16.34-4.68-33.59-7.19-51.41-7.19
		c-103.06,0-186.9,83.84-186.9,186.9c0,16.32,2.11,32.17,6.06,47.27C36.4,364.94,26.78,426.38,56.2,455.8
		c30.45,30.45,95.19,19.08,167.15-23.12c10.6,1.88,21.51,2.86,32.65,2.86c103.06,0,186.9-83.84,186.9-186.9
		c0-12.62-1.26-24.95-3.66-36.87C475.98,144.5,484.61,85,455.8,56.2z"/>
	<circle cx="256" cy="248.64" r="155.43"/>
	<g>
		<g id="XMLID_00000170983901988728455370000018104736378007923385_">
			<g>
				<path class="st3" d="M332.5,294.62v0.96c-13.53,0-24.5,10.97-24.5,24.5h-0.96c0-13.53-10.96-24.5-24.49-24.5v-0.96
					c13.53,0,24.49-10.97,24.49-24.5H308C308,283.65,318.97,294.62,332.5,294.62z"/>
			</g>
			<g>
			</g>
		</g>
	</g>
	<g>
		<path d="M188.07,399.48c-9.02,5.04-18.34,9.56-27.89,13.54c-9.54,4.01-19.31,7.53-29.26,10.56c-9.95,3.04-20.1,5.56-30.4,7.61
			c-10.31,2.04-20.75,3.57-31.42,4.34c10.54,2.14,21.38,2.35,32.16,2.07c10.79-0.43,21.56-1.82,32.19-3.98
			c10.63-2.18,21.1-5.21,31.32-8.97c2.54-0.97,5.1-1.9,7.61-2.97l7.5-3.24c4.91-2.36,9.82-4.72,14.58-7.39
			c2.39-1.3,4.77-2.63,7.08-4.09c2.32-1.43,4.67-2.81,6.95-4.29c2.04-1.4,4.09-2.79,6.12-4.19c-5.36-1.48-10.61-3.23-15.73-5.25
			C195.31,395.39,191.72,397.49,188.07,399.48z"/>
		<path class="st3" d="M234.4,382.91c2.05-1.78,3.99-3.68,5.98-5.53c1.96-1.88,3.95-3.71,5.79-5.7
			c15.08-15.55,28.02-33.04,37.8-52.09c-14.31,15.92-29.01,30.97-44.89,44.5c-1.92,1.76-4,3.34-6.03,4.97
			c-2.04,1.61-4,3.32-6.08,4.88c-4.2,3.06-8.24,6.31-12.57,9.17c-5.06,3.57-10.25,6.93-15.54,10.13c5.11,2.02,10.37,3.77,15.73,5.25
			c2.44-1.69,4.86-3.41,7.19-5.26C226.16,389.99,230.28,386.44,234.4,382.91z"/>
	</g>
</g>
<g class="st0">
	<g class="st1">
		<path d="M455.8,56.2c-27.78-27.78-84.09-20.76-148.39,12.72c-16.34-4.68-33.59-7.19-51.41-7.19c-103.06,0-186.9,83.84-186.9,186.9
			c0,16.32,2.11,32.17,6.06,47.27C36.4,364.94,26.78,426.38,56.2,455.8c30.45,30.45,95.19,19.08,167.15-23.12
			c10.6,1.88,21.51,2.86,32.65,2.86c103.06,0,186.9-83.84,186.9-186.9c0-12.62-1.27-24.95-3.66-36.87
			C475.98,144.5,484.61,85,455.8,56.2z M256,404.07c-14.34,0-28.22-1.95-41.4-5.59c-2.03,1.41-4.08,2.79-6.12,4.19
			c-2.28,1.48-4.64,2.86-6.95,4.29c-2.3,1.45-4.68,2.78-7.08,4.09c-4.75,2.67-9.67,5.03-14.58,7.39l-7.5,3.24
			c-2.5,1.07-5.06,2-7.61,2.97c-10.21,3.76-20.69,6.8-31.32,8.97c-10.63,2.17-21.4,3.55-32.19,3.98
			c-10.78,0.28-21.62,0.07-32.16-2.07c10.67-0.78,21.11-2.3,31.42-4.34c10.3-2.05,20.44-4.57,30.4-7.61
			c9.95-3.03,19.72-6.55,29.26-10.56c9.55-3.98,18.87-8.5,27.89-13.54c1.87-1.03,3.73-2.08,5.57-3.15c1.75-1.02,3.49-2.05,5.22-3.1
			c-57.57-22.77-98.3-78.92-98.3-144.59c0-85.84,69.59-155.43,155.43-155.43s155.43,69.59,155.43,155.43S341.84,404.07,256,404.07z"
			/>
		<path d="M214.6,398.48c1-0.69,2-1.4,2.99-2.11c0.24-0.17,0.48-0.34,0.72-0.51c1.17-0.85,2.34-1.73,3.48-2.63
			c4.38-3.23,8.5-6.79,12.62-10.32c2.05-1.78,3.99-3.68,5.98-5.53c1.96-1.88,3.95-3.71,5.79-5.7c15.08-15.55,28.02-33.04,37.8-52.09
			c-14.31,15.92-29.01,30.97-44.89,44.5c-1.92,1.76-4,3.34-6.03,4.97c-2.04,1.61-4,3.32-6.08,4.88c-4.2,3.06-8.24,6.31-12.57,9.17
			c-2.48,1.75-4.99,3.44-7.53,5.1c-0.19,0.12-0.38,0.24-0.57,0.36c-2.46,1.6-4.94,3.15-7.44,4.67
			C203.98,395.25,209.23,397,214.6,398.48z"/>
	</g>
	<g class="st1">
		<g id="XMLID_00000003814363194944634400000006433979927675798420_">
			<g>
				<path d="M332.5,294.62v0.96c-13.53,0-24.49,10.96-24.49,24.49h-0.96c0-13.53-10.96-24.49-24.49-24.49v-0.96
					c13.53,0,24.49-10.96,24.49-24.49h0.96C308.01,283.65,318.97,294.62,332.5,294.62z"/>
			</g>
			<g>
			</g>
		</g>
	</g>
</g>
<g class="st0">
	<g class="st1">
		<path class="st3" d="M455.8,56.2c-27.78-27.78-84.09-20.76-148.39,12.72c-16.34-4.68-33.59-7.19-51.41-7.19
			c-103.06,0-186.9,83.84-186.9,186.9c0,16.32,2.11,32.17,6.06,47.27C36.4,364.94,26.78,426.38,56.2,455.8
			c30.45,30.45,95.19,19.08,167.15-23.12c10.6,1.88,21.51,2.86,32.65,2.86c103.06,0,186.9-83.84,186.9-186.9
			c0-12.62-1.27-24.95-3.66-36.87C475.98,144.5,484.61,85,455.8,56.2z M256,404.07c-14.34,0-28.22-1.95-41.4-5.59
			c-2.03,1.41-4.08,2.79-6.12,4.19c-2.28,1.48-4.64,2.86-6.95,4.29c-2.3,1.45-4.68,2.78-7.08,4.09c-4.75,2.67-9.67,5.03-14.58,7.39
			l-7.5,3.24c-2.5,1.07-5.06,2-7.61,2.97c-10.21,3.76-20.69,6.8-31.32,8.97c-10.63,2.17-21.4,3.55-32.19,3.98
			c-10.78,0.28-21.62,0.07-32.16-2.07c10.67-0.78,21.11-2.3,31.42-4.34c10.3-2.05,20.44-4.57,30.4-7.61
			c9.95-3.03,19.72-6.55,29.26-10.56c9.55-3.98,18.87-8.5,27.89-13.54c1.87-1.03,3.73-2.08,5.57-3.15c1.75-1.02,3.49-2.05,5.22-3.1
			c-57.57-22.77-98.3-78.92-98.3-144.59c0-85.84,69.59-155.43,155.43-155.43s155.43,69.59,155.43,155.43S341.84,404.07,256,404.07z"
			/>
		<path class="st3" d="M214.6,398.48c1-0.69,2-1.4,2.99-2.11c0.24-0.17,0.48-0.34,0.72-0.51c1.17-0.85,2.34-1.73,3.48-2.63
			c4.38-3.23,8.5-6.79,12.62-10.32c2.05-1.78,3.99-3.68,5.98-5.53c1.96-1.88,3.95-3.71,5.79-5.7c15.08-15.55,28.02-33.04,37.8-52.09
			c-14.31,15.92-29.01,30.97-44.89,44.5c-1.92,1.76-4,3.34-6.03,4.97c-2.04,1.61-4,3.32-6.08,4.88c-4.2,3.06-8.24,6.31-12.57,9.17
			c-2.48,1.75-4.99,3.44-7.53,5.1c-0.19,0.12-0.38,0.24-0.57,0.36c-2.46,1.6-4.94,3.15-7.44,4.67
			C203.98,395.25,209.23,397,214.6,398.48z"/>
	</g>
	<g class="st1">
		<g id="XMLID_00000074411327409164597660000007831259390364831392_">
			<g>
				<path class="st3" d="M332.5,294.62v0.96c-13.53,0-24.49,10.96-24.49,24.49h-0.96c0-13.53-10.96-24.49-24.49-24.49v-0.96
					c13.53,0,24.49-10.96,24.49-24.49h0.96C308.01,283.65,318.97,294.62,332.5,294.62z"/>
			</g>
			<g>
			</g>
		</g>
	</g>
</g>
</svg>
